<svg xmlns="http://www.w3.org/2000/svg" width="1324.61" height="514.617" viewBox="0 0 1324.61 514.617">
  <g id="graph" transform="translate(-481.704 -1313.883)">
    <path id="Path_62765" data-name="Path 62765" d="M4655,1470.941H5920" transform="translate(-4139.5 100)" fill="none" stroke="#b4bccf" stroke-width="2" stroke-dasharray="10 1"/>
    <path id="Path_62761" data-name="Path 62761" d="M4593.027,1203.03v514.117H5885.146" transform="translate(-4092.503 110.852)" fill="none" stroke="#1e2b48" stroke-width="1"/>
    <g id="Group_11135" data-name="Group 11135">
      <path id="Path_62762" data-name="Path 62762" d="M4649.524,1683,4706,1632l94,40,56-32,38,32,50-40,52,40,48-78,74,78,50-32,54,32,102-78,78,78,28-40,52,28,64-94,70,94,56-38,14,10,52-38,28,66,50-28,50,28,44-58" transform="translate(-4135 90.5)" fill="none" stroke="#19edd0" stroke-linecap="round" stroke-width="4"/>
      <path id="Path_62770" data-name="Path 62770" d="M4649.524,1683,4706,1632l94,40,56-32,38,32,50-40,52,40,48-78,74,78,50-32,54,32,102-78,78,78,28-40,52,28,64-94,70,94,56-38,14,10,52-38,28,66,50-28,50,28,44-58" transform="translate(-4133.514 100)" fill="none" stroke="#19edd0" stroke-linecap="round" stroke-width="4"/>
    </g>
    <g id="Group_11133" data-name="Group 11133">
      <path id="Path_62763" data-name="Path 62763" d="M4662,1624.5l38.333-78.5,46.4,30L4869.8,1401.25,4972.695,1560l28.244-50s22.193,50,28.246,50,30.262-34,30.262-34l36.315,34,48.42-78.75,66.577,78.75,74.647-86.75L5347.95,1546l94.822-144.75L5513.385,1546l60.525-46,66.577,26,54.473-26s54.473-2,60.525,10,74.647,20,76.665,16,50.438-98,50.438-98l10.087,108,34.3-10" transform="translate(-4151.973 -18.5)" fill="none" stroke="#4d24f3" stroke-linecap="round" stroke-width="4"/>
      <path id="Path_62768" data-name="Path 62768" d="M4662,1624.5l38.333-78.5,46.4,30L4869.8,1401.25,4972.695,1560l28.244-50s22.193,50,28.246,50,30.262-34,30.262-34l36.315,34,48.42-78.75,66.577,78.75,74.647-86.75L5347.95,1546l94.822-144.75L5513.385,1546l60.525-46,66.577,26,54.473-26s54.473-2,60.525,10,74.647,20,76.665,16,50.438-98,50.438-98l10.087,108,34.3-10" transform="translate(-4150.486 -9)" fill="none" stroke="#4d24f3" stroke-linecap="round" stroke-width="4"/>
    </g>
    <g id="Group_11134" data-name="Group 11134">
      <path id="Path_62764" data-name="Path 62764" d="M4659.027,1603l115.525-91,52.708,57,36.49-24,35.477,24,78.049-31,35.477,26,40.545-19,18.245,19,26.354-26,93.253,36,107.444-71,91.226,71,90.212-62,57.776,33,53.722-33,33.449,26,10.136-19,20.272,19,110.485-44,38.518,44,45.613-19,32.436,26L5924,1503" transform="translate(-4149 100)" fill="none" stroke="#73bbea" stroke-linecap="round" stroke-width="4"/>
      <path id="Path_62769" data-name="Path 62769" d="M4659.027,1603l115.525-91,52.708,57,36.49-24,35.477,24,78.049-31,35.477,26,40.545-19,18.245,19,26.354-26,93.253,36,107.444-71,91.226,71,90.212-62,57.776,33,53.722-33,33.449,26,10.136-19,20.272,19,110.485-44,38.518,44,45.613-19,32.436,26L5924,1503" transform="translate(-4147.514 109.5)" fill="none" stroke="#73bbea" stroke-linecap="round" stroke-width="4"/>
    </g>
    <path id="Path_62766" data-name="Path 62766" d="M4655,1470.941H5920" transform="translate(-4139.5 -110.191)" fill="none" stroke="#b4bccf" stroke-width="2" stroke-dasharray="10 1"/>
    <path id="Path_62767" data-name="Path 62767" d="M4655,1470.941H5920" transform="translate(-4139.5 324.559)" fill="none" stroke="#b4bccf" stroke-width="2" stroke-dasharray="10 1"/>
  </g>
</svg>
