<svg xmlns="http://www.w3.org/2000/svg" width="26.502" height="26.5" viewBox="0 0 26.502 26.5">
  <path id="Home" d="M1401.066,281.658h-10.434a2.665,2.665,0,0,1-2.816-2.823q0-7.384,0-14.768a2.674,2.674,0,0,1,1.417-2.475l10.406-6.019a2.666,2.666,0,0,1,2.83-.014q5.243,3.023,10.477,6.061a2.607,2.607,0,0,1,1.368,2.392q0,7.439,0,14.878a2.658,2.658,0,0,1-2.787,2.768Zm-6.183-9.741c0,1.159,0,2.319,0,3.478a.953.953,0,0,0,.172.6.882.882,0,0,0,1.594-.536q0-3.519,0-7.039a.888.888,0,0,0-.976-.889.88.88,0,0,0-.787.883C1394.879,269.58,1394.883,270.749,1394.883,271.917Zm5.3.024c0,1.15,0,2.3,0,3.45a.959.959,0,0,0,.17.6.883.883,0,0,0,1.6-.557q0-3.464,0-6.928a.888.888,0,1,0-1.766.015Q1400.181,270.23,1400.182,271.942Zm7.067.006q0-1.725,0-3.45a.887.887,0,1,0-1.766,0q0,3.437,0,6.873a.888.888,0,1,0,1.766,0Q1407.251,273.659,1407.249,271.948Z" transform="translate(-1387.815 -255.158)" fill="#5221f3"/>
</svg>
