<svg xmlns="http://www.w3.org/2000/svg" width="31.272" height="35.58" viewBox="0 0 31.272 35.58">
  <g id="Income" transform="translate(465.441 518.091)">
    <path id="Path_62748" data-name="Path 62748" d="M-452.306-518.091c.369.291.753.565,1.106.875q5.488,4.833,10.968,9.675a1.088,1.088,0,0,1,.433,1.282,1.091,1.091,0,0,1-1.171.677l-2.814,0a.638.638,0,0,0-.1.025v1.427c-5.815.469-9.879,3.265-11.4,8.943-1.378,5.139.461,9.355,4.595,12.654-.109.006-.216.017-.323.017h-9.033a1.073,1.073,0,0,1-1.218-1.213q0-10.7,0-21.4v-.439c-.133-.006-.245-.016-.356-.016-.9,0-1.807,0-2.71,0a1.044,1.044,0,0,1-1.033-.675,1.026,1.026,0,0,1,.33-1.188q5.846-5.162,11.7-10.319a4.411,4.411,0,0,1,.48-.325Z" transform="translate(0)" fill="#2a3141"/>
    <path id="Path_62749" data-name="Path 62749" d="M-328.18-344.088a9.744,9.744,0,0,1,9.719,9.729,9.746,9.746,0,0,1-9.755,9.728,9.746,9.746,0,0,1-9.7-9.747A9.744,9.744,0,0,1-328.18-344.088Zm.8,5.433c.266.162.461.259.631.39a.882.882,0,0,0,1.246-.046.824.824,0,0,0-.116-1.256,4.535,4.535,0,0,0-1.3-.695c-.364-.119-.481-.251-.476-.63a.854.854,0,0,0-1.1-.9.873.873,0,0,0-.619,1,.522.522,0,0,1-.414.613,2.971,2.971,0,0,0-1.984,2.619,2.651,2.651,0,0,0,1.43,2.782,6.829,6.829,0,0,0,.7.376.387.387,0,0,1,.263.423c-.009,1.17,0,2.339-.006,3.509,0,.089-.016.177-.031.33-.268-.085-.513-.142-.739-.24s-.422-.239-.636-.353a.869.869,0,0,0-1.183.3.835.835,0,0,0,.272,1.158,13.323,13.323,0,0,0,1.526.73c.229.1.578.028.717.179s.062.478.094.726a.835.835,0,0,0,.827.741.83.83,0,0,0,.862-.7,2.569,2.569,0,0,0,.026-.588.324.324,0,0,1,.277-.391,3.449,3.449,0,0,0,1.723-1.174,3.4,3.4,0,0,0-1.443-5.484,1.8,1.8,0,0,1-.355-.135c-.082-.052-.186-.155-.187-.237C-327.388-336.591-327.383-337.573-327.383-338.655Z" transform="translate(-115.708 -157.881)" fill="#2a3141"/>
    <path id="Path_62750" data-name="Path 62750" d="M-224.043-226.732v-3.139a1.32,1.32,0,0,1,1.051,1.09A1.932,1.932,0,0,1-224.043-226.732Z" transform="translate(-219.032 -261.515)" fill="#2a3141"/>
    <path id="Path_62751" data-name="Path 62751" d="M-249.663-283.017v2.137a.838.838,0,0,1-.634-.687A1.431,1.431,0,0,1-249.663-283.017Z" transform="translate(-195.188 -213.293)" fill="#2a3141"/>
  </g>
</svg>
