<svg xmlns="http://www.w3.org/2000/svg" width="30.615" height="27.335" viewBox="0 0 30.615 27.335">
  <g id="invest_wallet" transform="translate(-1186.066 150.603)">
    <path id="Path_62738" data-name="Path 62738" d="M1216.681-139.669c-1.851,0-3.649-.005-5.448,0a5.46,5.46,0,0,0-5.374,4.377,5.468,5.468,0,0,0,5.2,6.549c1.742.026,3.484.006,5.227.007h.34a30.224,30.224,0,0,1-.024,3.262,2.609,2.609,0,0,1-2.549,2.2c-.08,0-.159,0-.239,0q-11.649,0-23.3,0a4.355,4.355,0,0,1-4.332-3.415,4.589,4.589,0,0,1-.109-1.014q-.01-9.241,0-18.481a4.363,4.363,0,0,1,4.418-4.42q10.026-.007,20.052,0a1.65,1.65,0,0,1,1.766,1.635,1.649,1.649,0,0,1-1.757,1.644H1190.7a2.738,2.738,0,0,0-.443.016,1.1,1.1,0,0,0-.909,1.15,1.106,1.106,0,0,0,1.02,1.017c.125.009.25,0,.375,0H1213.7a2.753,2.753,0,0,1,2.979,2.976C1216.681-141.342,1216.681-140.524,1216.681-139.669Z" fill="#2a3141"/>
    <path id="Path_62739" data-name="Path 62739" d="M1434.817-.086c-1.914,0-3.805.049-5.693-.014a3.234,3.234,0,0,1-3.027-3.343,3.262,3.262,0,0,1,3.163-3.185c1.844-.027,3.688-.006,5.557-.006Z" transform="translate(-218.162 -130.845)" fill="#2a3141"/>
  </g>
</svg>
