<svg xmlns="http://www.w3.org/2000/svg" width="37" height="36.958" viewBox="0 0 37 36.958">
  <g id="Logout" transform="translate(1569.422 506.841)">
    <path id="Path_62753" data-name="Path 62753" d="M-1556.92-506.841h3.4c.106.018.211.041.317.053,1.65.174,3.315.261,4.947.537a7.7,7.7,0,0,1,6.473,5.888,25.567,25.567,0,0,1,.682,6.52,1.586,1.586,0,0,1-.448.977,1.52,1.52,0,0,1-1.7.366,1.669,1.669,0,0,1-1.168-1.348c-.037-.2-.04-.407-.056-.611-.128-1.583-.234-3.169-.39-4.749a3.975,3.975,0,0,0-3.341-3.7,43.836,43.836,0,0,0-8.711-.508.355.355,0,0,0-.108.042c.919.465,1.817.922,2.718,1.374a7.255,7.255,0,0,1,2.7,2.45,12.7,12.7,0,0,1,2.126,6.83q.344,7.223.022,14.445c-.006.129,0,.259,0,.416.53-.073,1.03-.136,1.528-.212a3.855,3.855,0,0,0,3.2-3.069c.115-.626.174-1.263.237-1.9a1.753,1.753,0,0,1,1.974-1.612,1.571,1.571,0,0,1,1.38,1.92c-.088.422-.115.858-.169,1.288a7.826,7.826,0,0,1-6.188,6.66c-.625.123-1.259.2-1.893.275-.271.03-.35.143-.383.4a6.411,6.411,0,0,1-.814,2.448,3.069,3.069,0,0,1-2.437,1.772,6.256,6.256,0,0,1-2.014-.3,41,41,0,0,1-8.894-3.816,10.354,10.354,0,0,1-4.837-6.434,17.816,17.816,0,0,1-.486-3.967,80.077,80.077,0,0,1,.407-14.891,8.14,8.14,0,0,1,6.06-6.835c1.264-.282,2.566-.4,3.855-.557C-1558.265-506.775-1557.591-506.793-1556.92-506.841Z" fill="#2a3141"/>
    <path id="Path_62754" data-name="Path 62754" d="M-1326.691-379.186a4.676,4.676,0,0,1-1.563,2.482c-1.094,1.05-2.147,2.143-3.226,3.21a1.618,1.618,0,0,1-1.793.414,1.618,1.618,0,0,1-1.112-1.427,1.649,1.649,0,0,1,.522-1.4q.87-.866,1.737-1.736c.083-.083.162-.172.291-.309-.18-.008-.3-.019-.428-.019-2.564,0-5.129,0-7.693,0a1.7,1.7,0,0,1-1.776-1.995,1.654,1.654,0,0,1,1.607-1.392c.963-.019,1.926-.007,2.889-.007h5.335c-.117-.134-.179-.214-.251-.286-.586-.589-1.177-1.172-1.76-1.764a1.706,1.706,0,0,1-.066-2.43,1.7,1.7,0,0,1,2.455.018c1.292,1.278,2.571,2.571,3.859,3.853a3.933,3.933,0,0,1,.972,1.855Z" transform="translate(-205.73 -108.866)" fill="#2a3141"/>
  </g>
</svg>
