<svg xmlns="http://www.w3.org/2000/svg" width="26.502" height="31.812" viewBox="0 0 26.502 31.812">
  <path id="Reports" d="M536.533-446.091h20.129a9.784,9.784,0,0,1,.945.286,3.628,3.628,0,0,1,2.239,3.515q0,12.1,0,24.2c0,.093,0,.186,0,.28a3.622,3.622,0,0,1-3.585,3.526q-9.661.016-19.321-.01a3.524,3.524,0,0,1-1.436-.325,3.529,3.529,0,0,1-2.152-3.44q0-10.282,0-20.564c0-1.284-.011-2.568,0-3.852a3.425,3.425,0,0,1,1.668-3.013A8.693,8.693,0,0,1,536.533-446.091Zm3.514,22.537a6.522,6.522,0,0,0,7.617.174,6.625,6.625,0,0,0,2.578-7.552c-.777-2.336-3.344-4.481-5.306-4.406v.332c0,1.988-.006,3.975,0,5.963a1.326,1.326,0,0,1-.42,1.022c-.873.854-1.731,1.724-2.595,2.588Zm-1.433-1.391c.111-.105.187-.174.259-.246q1.932-1.931,3.867-3.86a.657.657,0,0,0,.213-.515c-.008-1.821,0-3.642,0-5.464v-.369a6.538,6.538,0,0,0-5.058,3.89A6.443,6.443,0,0,0,538.613-424.945Zm7.949,7.014H552.4c.838,0,1.677.008,2.515-.006a.958.958,0,0,0,.949-.887.972.972,0,0,0-.82-1.07,2.314,2.314,0,0,0-.4-.024q-8.041,0-16.082,0a2.389,2.389,0,0,0-.4.022.968.968,0,0,0-.829,1.033.989.989,0,0,0,1.1.931Q542.5-417.93,546.562-417.932Zm7.3-11.931h0c.341,0,.683.008,1.024,0a.973.973,0,0,0,.981-.922.937.937,0,0,0-.854-1.036,19.516,19.516,0,0,0-2.262,0,.949.949,0,0,0-.852,1.013.988.988,0,0,0,.97.941C553.2-429.853,553.529-429.862,553.86-429.862Zm.008,3.977c.341,0,.683.008,1.024,0a.97.97,0,0,0,.971-.9.942.942,0,0,0-.86-1.06,19.8,19.8,0,0,0-2.232,0,.958.958,0,0,0-.874,1.026.989.989,0,0,0,.977.934C553.206-425.877,553.538-425.886,553.869-425.885Zm.042-9.6c-.341,0-.683-.008-1.024,0a.984.984,0,0,0-.987.922.957.957,0,0,0,.863,1.035,19.106,19.106,0,0,0,2.262,0,.931.931,0,0,0,.841-1.045.968.968,0,0,0-.962-.908C554.572-435.49,554.241-435.481,553.91-435.481Zm-.021,13.247c.321,0,.641,0,.962,0a.987.987,0,0,0,1.016-.988.981.981,0,0,0-1.006-1q-.978-.012-1.956,0a.992.992,0,0,0-1.008,1,1,1,0,0,0,1,.982C553.226-422.228,553.558-422.235,553.889-422.234Z" transform="translate(-533.345 446.091)" fill="#2a3141"/>
</svg>
