<svg xmlns="http://www.w3.org/2000/svg" width="28.035" height="31.928" viewBox="0 0 28.035 31.928">
  <g id="Team" transform="translate(-118.128 493.928)">
    <path id="Path_62741" data-name="Path 62741" d="M130.173-249.962q-.156-1.377-.311-2.753c-.042-.371-.073-.744-.128-1.114a.315.315,0,0,0-.169-.206c-.914-.358-1.832-.705-2.818-1.081l-1.487,1.2-1.524,1.231-2.85-2.86c.042-.054.121-.159.2-.261.712-.881,1.42-1.765,2.14-2.638a.343.343,0,0,0,.039-.432q-.527-1.192-1-2.407c-.07-.178-.131-.264-.334-.284-1.189-.114-2.376-.242-3.562-.377-.079-.009-.208-.116-.21-.18-.016-.6-.01-1.2-.01-1.83h9.286a4.727,4.727,0,0,0,1.8,3.677,4.545,4.545,0,0,0,2.943,1.019,4.588,4.588,0,0,0,3.33-1.392,4.692,4.692,0,0,0,1.379-3.315h9.29c0,.634.005,1.253-.01,1.872,0,.054-.131.142-.209.15-1.176.133-2.353.263-3.531.373-.23.021-.3.116-.374.317-.31.8-.642,1.593-.991,2.377a.343.343,0,0,0,.039.432c.714.865,1.415,1.741,2.12,2.614.084.1.167.21.236.3l-2.868,2.843-3.006-2.427c-.986.376-1.9.721-2.817,1.083a.373.373,0,0,0-.175.265c-.134,1.166-.253,2.333-.378,3.5-.011.1-.036.2-.055.305Z" transform="translate(-0.021 -212.038)" fill="#2a3141"/>
    <path id="Path_62742" data-name="Path 62742" d="M221.382-380.611H207.294a.849.849,0,0,1-.023-.131c0-1.506-.024-3.012.008-4.518a3.185,3.185,0,0,1,3.186-3.134q3.863-.029,7.727,0a3.188,3.188,0,0,1,3.2,3.157c.03,1.485.008,2.97.008,4.456C221.4-380.732,221.389-380.682,221.382-380.611Z" transform="translate(-82.187 -97.294)" fill="#2a3141"/>
    <path id="Path_62743" data-name="Path 62743" d="M255.2-486.694a3.622,3.622,0,0,1-3.623-3.625,3.627,3.627,0,0,1,3.611-3.608,3.627,3.627,0,0,1,3.623,3.627A3.622,3.622,0,0,1,255.2-486.694Z" transform="translate(-123.051 0)" fill="#2a3141"/>
    <path id="Path_62744" data-name="Path 62744" d="M123.212-370.631h-5.064c-.006-.11-.016-.2-.016-.293,0-1.205-.007-2.411,0-3.616a2.854,2.854,0,0,1,1.638-2.751,2.567,2.567,0,0,1,1.01-.27c.992-.035,1.987-.013,2.992-.013a6.5,6.5,0,0,0-.345.956,9.215,9.215,0,0,0-.206,1.6c-.028,1.34-.009,2.681-.01,4.021Z" transform="translate(0 -107.278)" fill="#2a3141"/>
    <path id="Path_62745" data-name="Path 62745" d="M410.749-370.89h-5.039c0-.142,0-.264,0-.387,0-1.444,0-2.889-.01-4.333a4.7,4.7,0,0,0-.479-2.012c-.03-.064-.054-.13-.094-.228.117-.005.2-.014.292-.012.955.015,1.913-.01,2.865.056a2.731,2.731,0,0,1,2.453,2.5C410.791-373.847,410.749-372.383,410.749-370.89Z" transform="translate(-264.627 -107.019)" fill="#2a3141"/>
    <path id="Path_62746" data-name="Path 62746" d="M161.134-472.413a3.25,3.25,0,0,1,2.993,4.515.525.525,0,0,1-.394.342,5.063,5.063,0,0,0-2.469,1.436.594.594,0,0,1-.424.157,3.243,3.243,0,0,1-2.833-2.436,3.254,3.254,0,0,1,1.313-3.448A3.208,3.208,0,0,1,161.134-472.413Z" transform="translate(-36.679 -19.838)" fill="#2a3141"/>
    <path id="Path_62747" data-name="Path 62747" d="M358.073-472.413a3.264,3.264,0,0,1,3.239,3.035,3.243,3.243,0,0,1-2.964,3.42.526.526,0,0,1-.37-.146,5.321,5.321,0,0,0-2.519-1.478.569.569,0,0,1-.325-.273A3.236,3.236,0,0,1,358.073-472.413Z" transform="translate(-218.254 -19.838)" fill="#2a3141"/>
  </g>
</svg>
