<svg xmlns="http://www.w3.org/2000/svg" width="38.236" height="34.511" viewBox="0 0 38.236 34.511">
  <path id="Withdrawal" d="M-1007.742-630.922c-.775-.047-1.486-.03-2.176-.142a5.521,5.521,0,0,1-4.562-5.328q-.026-2.267,0-4.535a5.546,5.546,0,0,1,5.441-5.425q13.645-.023,27.289,0a5.468,5.468,0,0,1,5.418,5.19,39.26,39.26,0,0,1-.042,5.374,5.448,5.448,0,0,1-5.091,4.806c-.508.022-1.018,0-1.575,0v.5c0,4.279-.054,8.559.018,12.837a5.7,5.7,0,0,1-5.751,5.782c-4.42.007-8.84.015-13.26,0a5.64,5.64,0,0,1-5.649-4.731,6.426,6.426,0,0,1-.058-1.072q-.005-6.4,0-12.8Zm17.276,1.8a4.941,4.941,0,0,0-4.948-4.92,4.958,4.958,0,0,0-4.909,4.926,4.95,4.95,0,0,0,4.936,4.935A4.93,4.93,0,0,0-990.466-629.121Zm-17.3-5.555v-7.982c-.474,0-.923-.032-1.366.007a1.754,1.754,0,0,0-1.647,1.723c-.029,1.51-.026,3.021,0,4.531a1.731,1.731,0,0,0,1.562,1.714C-1008.753-634.643-1008.277-634.676-1007.769-634.676Zm24.751.014c.4,0,.781,0,1.162,0a1.774,1.774,0,0,0,1.866-1.821c.024-1.447.021-2.895,0-4.342a1.737,1.737,0,0,0-1.112-1.691,5.257,5.257,0,0,0-1.916-.15Zm-14.415,15.421c0,.243-.006.486,0,.729a1.738,1.738,0,0,0,1.787,1.762,1.759,1.759,0,0,0,1.9-1.7,15,15,0,0,0,0-1.573,1.764,1.764,0,0,0-1.89-1.706,1.742,1.742,0,0,0-1.8,1.794C-997.437-619.7-997.433-619.472-997.433-619.241ZM-993.717-639l-.025,0c0-.243.009-.487,0-.729a1.766,1.766,0,0,0-1.888-1.748,1.732,1.732,0,0,0-1.8,1.786c-.007.511-.016,1.024.009,1.535a1.712,1.712,0,0,0,1.656,1.649,1.753,1.753,0,0,0,1.965-1.385A9.543,9.543,0,0,0-993.717-639Z" transform="translate(1014.493 646.363)" fill="#2a3141"/>
</svg>
